<mxfile host="65bd71144e">
    <diagram name="Page-1" id="xGH0vzM_QA4cssUUyt8o">
        <mxGraphModel dx="484" dy="528" grid="1" gridSize="10" guides="1" tooltips="1" connect="1" arrows="1" fold="1" page="1" pageScale="1" pageWidth="850" pageHeight="1100" math="0" shadow="0">
            <root>
                <mxCell id="0"/>
                <mxCell id="1" parent="0"/>
                <mxCell id="QV8UUKTRK6wTIGegPZfl-1" value="Funcionalidades do aplicativo" style="rounded=0;whiteSpace=wrap;html=1;" parent="1" vertex="1">
                    <mxGeometry x="40" y="40" width="320" height="40" as="geometry"/>
                </mxCell>
                <mxCell id="QV8UUKTRK6wTIGegPZfl-2" value="Criar pedido" style="rounded=0;whiteSpace=wrap;html=1;" parent="1" vertex="1">
                    <mxGeometry x="40" y="80" width="320" height="40" as="geometry"/>
                </mxCell>
                <mxCell id="QV8UUKTRK6wTIGegPZfl-3" value="Visualizar pedidos" style="rounded=0;whiteSpace=wrap;html=1;" parent="1" vertex="1">
                    <mxGeometry x="40" y="120" width="320" height="40" as="geometry"/>
                </mxCell>
                <mxCell id="QV8UUKTRK6wTIGegPZfl-4" value="Iniciar processo de fazer pedido" style="rounded=0;whiteSpace=wrap;html=1;" parent="1" vertex="1">
                    <mxGeometry x="40" y="160" width="320" height="40" as="geometry"/>
                </mxCell>
                <mxCell id="QV8UUKTRK6wTIGegPZfl-5" value="Concluir um pedido" style="rounded=0;whiteSpace=wrap;html=1;" parent="1" vertex="1">
                    <mxGeometry x="40" y="200" width="320" height="40" as="geometry"/>
                </mxCell>
                <mxCell id="QV8UUKTRK6wTIGegPZfl-6" value="Gerenciar usuarios do sistema" style="rounded=0;whiteSpace=wrap;html=1;" parent="1" vertex="1">
                    <mxGeometry x="40" y="240" width="320" height="40" as="geometry"/>
                </mxCell>
                <mxCell id="QV8UUKTRK6wTIGegPZfl-7" value="User" style="swimlane;fontStyle=0;childLayout=stackLayout;horizontal=1;startSize=26;fillColor=none;horizontalStack=0;resizeParent=1;resizeParentMax=0;resizeLast=0;collapsible=1;marginBottom=0;html=1;" parent="1" vertex="1">
                    <mxGeometry x="240" y="397" width="160" height="208" as="geometry"/>
                </mxCell>
                <mxCell id="QV8UUKTRK6wTIGegPZfl-8" value="Id" style="text;strokeColor=none;fillColor=none;align=left;verticalAlign=top;spacingLeft=4;spacingRight=4;overflow=hidden;rotatable=0;points=[[0,0.5],[1,0.5]];portConstraint=eastwest;whiteSpace=wrap;html=1;" parent="QV8UUKTRK6wTIGegPZfl-7" vertex="1">
                    <mxGeometry y="26" width="160" height="26" as="geometry"/>
                </mxCell>
                <mxCell id="QV8UUKTRK6wTIGegPZfl-9" value="Name" style="text;strokeColor=none;fillColor=none;align=left;verticalAlign=top;spacingLeft=4;spacingRight=4;overflow=hidden;rotatable=0;points=[[0,0.5],[1,0.5]];portConstraint=eastwest;whiteSpace=wrap;html=1;" parent="QV8UUKTRK6wTIGegPZfl-7" vertex="1">
                    <mxGeometry y="52" width="160" height="26" as="geometry"/>
                </mxCell>
                <mxCell id="QV8UUKTRK6wTIGegPZfl-10" value="Password" style="text;strokeColor=none;fillColor=none;align=left;verticalAlign=top;spacingLeft=4;spacingRight=4;overflow=hidden;rotatable=0;points=[[0,0.5],[1,0.5]];portConstraint=eastwest;whiteSpace=wrap;html=1;" parent="QV8UUKTRK6wTIGegPZfl-7" vertex="1">
                    <mxGeometry y="78" width="160" height="26" as="geometry"/>
                </mxCell>
                <mxCell id="QV8UUKTRK6wTIGegPZfl-11" value="Company" style="text;strokeColor=none;fillColor=none;align=left;verticalAlign=top;spacingLeft=4;spacingRight=4;overflow=hidden;rotatable=0;points=[[0,0.5],[1,0.5]];portConstraint=eastwest;whiteSpace=wrap;html=1;" parent="QV8UUKTRK6wTIGegPZfl-7" vertex="1">
                    <mxGeometry y="104" width="160" height="26" as="geometry"/>
                </mxCell>
                <mxCell id="QV8UUKTRK6wTIGegPZfl-12" value="Profile Type" style="text;strokeColor=none;fillColor=none;align=left;verticalAlign=top;spacingLeft=4;spacingRight=4;overflow=hidden;rotatable=0;points=[[0,0.5],[1,0.5]];portConstraint=eastwest;whiteSpace=wrap;html=1;" parent="QV8UUKTRK6wTIGegPZfl-7" vertex="1">
                    <mxGeometry y="130" width="160" height="26" as="geometry"/>
                </mxCell>
                <mxCell id="QV8UUKTRK6wTIGegPZfl-13" value="Deleted" style="text;strokeColor=none;fillColor=none;align=left;verticalAlign=top;spacingLeft=4;spacingRight=4;overflow=hidden;rotatable=0;points=[[0,0.5],[1,0.5]];portConstraint=eastwest;whiteSpace=wrap;html=1;" parent="QV8UUKTRK6wTIGegPZfl-7" vertex="1">
                    <mxGeometry y="156" width="160" height="26" as="geometry"/>
                </mxCell>
                <mxCell id="QV8UUKTRK6wTIGegPZfl-14" value="Active Token Id" style="text;strokeColor=none;fillColor=none;align=left;verticalAlign=top;spacingLeft=4;spacingRight=4;overflow=hidden;rotatable=0;points=[[0,0.5],[1,0.5]];portConstraint=eastwest;whiteSpace=wrap;html=1;" parent="QV8UUKTRK6wTIGegPZfl-7" vertex="1">
                    <mxGeometry y="182" width="160" height="26" as="geometry"/>
                </mxCell>
                <mxCell id="QV8UUKTRK6wTIGegPZfl-15" value="Order" style="swimlane;fontStyle=0;childLayout=stackLayout;horizontal=1;startSize=26;fillColor=none;horizontalStack=0;resizeParent=1;resizeParentMax=0;resizeLast=0;collapsible=1;marginBottom=0;html=1;" parent="1" vertex="1">
                    <mxGeometry x="480" y="520" width="160" height="358" as="geometry"/>
                </mxCell>
                <mxCell id="QV8UUKTRK6wTIGegPZfl-16" value="Id" style="text;strokeColor=none;fillColor=none;align=left;verticalAlign=top;spacingLeft=4;spacingRight=4;overflow=hidden;rotatable=0;points=[[0,0.5],[1,0.5]];portConstraint=eastwest;whiteSpace=wrap;html=1;" parent="QV8UUKTRK6wTIGegPZfl-15" vertex="1">
                    <mxGeometry y="26" width="160" height="26" as="geometry"/>
                </mxCell>
                <mxCell id="QV8UUKTRK6wTIGegPZfl-17" value="Table" style="text;strokeColor=none;fillColor=none;align=left;verticalAlign=top;spacingLeft=4;spacingRight=4;overflow=hidden;rotatable=0;points=[[0,0.5],[1,0.5]];portConstraint=eastwest;whiteSpace=wrap;html=1;" parent="QV8UUKTRK6wTIGegPZfl-15" vertex="1">
                    <mxGeometry y="52" width="160" height="26" as="geometry"/>
                </mxCell>
                <mxCell id="QV8UUKTRK6wTIGegPZfl-18" value="Description" style="text;strokeColor=none;fillColor=none;align=left;verticalAlign=top;spacingLeft=4;spacingRight=4;overflow=hidden;rotatable=0;points=[[0,0.5],[1,0.5]];portConstraint=eastwest;whiteSpace=wrap;html=1;" parent="QV8UUKTRK6wTIGegPZfl-15" vertex="1">
                    <mxGeometry y="78" width="160" height="26" as="geometry"/>
                </mxCell>
                <mxCell id="QV8UUKTRK6wTIGegPZfl-26" value="Cancelled" style="text;strokeColor=none;fillColor=none;align=left;verticalAlign=top;spacingLeft=4;spacingRight=4;overflow=hidden;rotatable=0;points=[[0,0.5],[1,0.5]];portConstraint=eastwest;whiteSpace=wrap;html=1;" parent="QV8UUKTRK6wTIGegPZfl-15" vertex="1">
                    <mxGeometry y="104" width="160" height="24" as="geometry"/>
                </mxCell>
                <mxCell id="QV8UUKTRK6wTIGegPZfl-19" value="Company Id" style="text;strokeColor=none;fillColor=none;align=left;verticalAlign=top;spacingLeft=4;spacingRight=4;overflow=hidden;rotatable=0;points=[[0,0.5],[1,0.5]];portConstraint=eastwest;whiteSpace=wrap;html=1;" parent="QV8UUKTRK6wTIGegPZfl-15" vertex="1">
                    <mxGeometry y="128" width="160" height="26" as="geometry"/>
                </mxCell>
                <mxCell id="QV8UUKTRK6wTIGegPZfl-20" value="Created by User Id" style="text;strokeColor=none;fillColor=none;align=left;verticalAlign=top;spacingLeft=4;spacingRight=4;overflow=hidden;rotatable=0;points=[[0,0.5],[1,0.5]];portConstraint=eastwest;whiteSpace=wrap;html=1;" parent="QV8UUKTRK6wTIGegPZfl-15" vertex="1">
                    <mxGeometry y="154" width="160" height="26" as="geometry"/>
                </mxCell>
                <mxCell id="QV8UUKTRK6wTIGegPZfl-21" value="Created at" style="text;strokeColor=none;fillColor=none;align=left;verticalAlign=top;spacingLeft=4;spacingRight=4;overflow=hidden;rotatable=0;points=[[0,0.5],[1,0.5]];portConstraint=eastwest;whiteSpace=wrap;html=1;" parent="QV8UUKTRK6wTIGegPZfl-15" vertex="1">
                    <mxGeometry y="180" width="160" height="26" as="geometry"/>
                </mxCell>
                <mxCell id="QV8UUKTRK6wTIGegPZfl-22" value="Being made by User Id" style="text;strokeColor=none;fillColor=none;align=left;verticalAlign=top;spacingLeft=4;spacingRight=4;overflow=hidden;rotatable=0;points=[[0,0.5],[1,0.5]];portConstraint=eastwest;whiteSpace=wrap;html=1;" parent="QV8UUKTRK6wTIGegPZfl-15" vertex="1">
                    <mxGeometry y="206" width="160" height="26" as="geometry"/>
                </mxCell>
                <mxCell id="QV8UUKTRK6wTIGegPZfl-23" value="Being made at" style="text;strokeColor=none;fillColor=none;align=left;verticalAlign=top;spacingLeft=4;spacingRight=4;overflow=hidden;rotatable=0;points=[[0,0.5],[1,0.5]];portConstraint=eastwest;whiteSpace=wrap;html=1;" parent="QV8UUKTRK6wTIGegPZfl-15" vertex="1">
                    <mxGeometry y="232" width="160" height="26" as="geometry"/>
                </mxCell>
                <mxCell id="QV8UUKTRK6wTIGegPZfl-24" value="Completed by User Id" style="text;strokeColor=none;fillColor=none;align=left;verticalAlign=top;spacingLeft=4;spacingRight=4;overflow=hidden;rotatable=0;points=[[0,0.5],[1,0.5]];portConstraint=eastwest;whiteSpace=wrap;html=1;" parent="QV8UUKTRK6wTIGegPZfl-15" vertex="1">
                    <mxGeometry y="258" width="160" height="26" as="geometry"/>
                </mxCell>
                <mxCell id="QV8UUKTRK6wTIGegPZfl-25" value="Completed at" style="text;strokeColor=none;fillColor=none;align=left;verticalAlign=top;spacingLeft=4;spacingRight=4;overflow=hidden;rotatable=0;points=[[0,0.5],[1,0.5]];portConstraint=eastwest;whiteSpace=wrap;html=1;" parent="QV8UUKTRK6wTIGegPZfl-15" vertex="1">
                    <mxGeometry y="284" width="160" height="26" as="geometry"/>
                </mxCell>
                <mxCell id="QV8UUKTRK6wTIGegPZfl-40" value="Delivered by User Id" style="text;strokeColor=none;fillColor=none;align=left;verticalAlign=top;spacingLeft=4;spacingRight=4;overflow=hidden;rotatable=0;points=[[0,0.5],[1,0.5]];portConstraint=eastwest;whiteSpace=wrap;html=1;" parent="QV8UUKTRK6wTIGegPZfl-15" vertex="1">
                    <mxGeometry y="310" width="160" height="24" as="geometry"/>
                </mxCell>
                <mxCell id="QV8UUKTRK6wTIGegPZfl-39" value="Delivered at" style="text;strokeColor=none;fillColor=none;align=left;verticalAlign=top;spacingLeft=4;spacingRight=4;overflow=hidden;rotatable=0;points=[[0,0.5],[1,0.5]];portConstraint=eastwest;whiteSpace=wrap;html=1;" parent="QV8UUKTRK6wTIGegPZfl-15" vertex="1">
                    <mxGeometry y="334" width="160" height="24" as="geometry"/>
                </mxCell>
                <mxCell id="QV8UUKTRK6wTIGegPZfl-27" value="Company" style="swimlane;fontStyle=0;childLayout=stackLayout;horizontal=1;startSize=26;fillColor=none;horizontalStack=0;resizeParent=1;resizeParentMax=0;resizeLast=0;collapsible=1;marginBottom=0;html=1;" parent="1" vertex="1">
                    <mxGeometry x="480" y="397" width="160" height="78" as="geometry"/>
                </mxCell>
                <mxCell id="QV8UUKTRK6wTIGegPZfl-28" value="Id" style="text;strokeColor=none;fillColor=none;align=left;verticalAlign=top;spacingLeft=4;spacingRight=4;overflow=hidden;rotatable=0;points=[[0,0.5],[1,0.5]];portConstraint=eastwest;whiteSpace=wrap;html=1;" parent="QV8UUKTRK6wTIGegPZfl-27" vertex="1">
                    <mxGeometry y="26" width="160" height="26" as="geometry"/>
                </mxCell>
                <mxCell id="QV8UUKTRK6wTIGegPZfl-29" value="Name" style="text;strokeColor=none;fillColor=none;align=left;verticalAlign=top;spacingLeft=4;spacingRight=4;overflow=hidden;rotatable=0;points=[[0,0.5],[1,0.5]];portConstraint=eastwest;whiteSpace=wrap;html=1;" parent="QV8UUKTRK6wTIGegPZfl-27" vertex="1">
                    <mxGeometry y="52" width="160" height="26" as="geometry"/>
                </mxCell>
                <mxCell id="QV8UUKTRK6wTIGegPZfl-30" value="Profile Type" style="swimlane;fontStyle=0;childLayout=stackLayout;horizontal=1;startSize=26;fillColor=none;horizontalStack=0;resizeParent=1;resizeParentMax=0;resizeLast=0;collapsible=1;marginBottom=0;html=1;" parent="1" vertex="1">
                    <mxGeometry x="40" y="400" width="160" height="52" as="geometry"/>
                </mxCell>
                <mxCell id="QV8UUKTRK6wTIGegPZfl-31" value="Name" style="text;strokeColor=none;fillColor=none;align=left;verticalAlign=top;spacingLeft=4;spacingRight=4;overflow=hidden;rotatable=0;points=[[0,0.5],[1,0.5]];portConstraint=eastwest;whiteSpace=wrap;html=1;" parent="QV8UUKTRK6wTIGegPZfl-30" vertex="1">
                    <mxGeometry y="26" width="160" height="26" as="geometry"/>
                </mxCell>
                <mxCell id="QV8UUKTRK6wTIGegPZfl-32" style="edgeStyle=orthogonalEdgeStyle;html=1;exitX=1;exitY=0.5;exitDx=0;exitDy=0;entryX=0;entryY=0.5;entryDx=0;entryDy=0;" parent="1" source="QV8UUKTRK6wTIGegPZfl-31" target="QV8UUKTRK6wTIGegPZfl-12" edge="1">
                    <mxGeometry relative="1" as="geometry"/>
                </mxCell>
                <mxCell id="QV8UUKTRK6wTIGegPZfl-33" style="edgeStyle=orthogonalEdgeStyle;html=1;exitX=0;exitY=0.5;exitDx=0;exitDy=0;entryX=1;entryY=0.5;entryDx=0;entryDy=0;" parent="1" source="QV8UUKTRK6wTIGegPZfl-28" target="QV8UUKTRK6wTIGegPZfl-11" edge="1">
                    <mxGeometry relative="1" as="geometry">
                        <Array as="points">
                            <mxPoint x="450" y="436"/>
                            <mxPoint x="450" y="514"/>
                        </Array>
                    </mxGeometry>
                </mxCell>
                <mxCell id="QV8UUKTRK6wTIGegPZfl-34" style="edgeStyle=orthogonalEdgeStyle;html=1;entryX=0;entryY=0.5;entryDx=0;entryDy=0;" parent="1" source="QV8UUKTRK6wTIGegPZfl-8" target="QV8UUKTRK6wTIGegPZfl-20" edge="1">
                    <mxGeometry relative="1" as="geometry">
                        <mxPoint x="450" y="560" as="targetPoint"/>
                        <Array as="points">
                            <mxPoint x="430" y="436"/>
                            <mxPoint x="430" y="687"/>
                        </Array>
                    </mxGeometry>
                </mxCell>
                <mxCell id="QV8UUKTRK6wTIGegPZfl-35" style="edgeStyle=orthogonalEdgeStyle;html=1;entryX=0;entryY=0.5;entryDx=0;entryDy=0;" parent="1" source="QV8UUKTRK6wTIGegPZfl-28" target="QV8UUKTRK6wTIGegPZfl-19" edge="1">
                    <mxGeometry relative="1" as="geometry">
                        <mxPoint x="470" y="660" as="targetPoint"/>
                        <Array as="points">
                            <mxPoint x="450" y="436"/>
                            <mxPoint x="450" y="661"/>
                        </Array>
                    </mxGeometry>
                </mxCell>
                <mxCell id="QV8UUKTRK6wTIGegPZfl-36" style="edgeStyle=orthogonalEdgeStyle;html=1;entryX=0;entryY=0.5;entryDx=0;entryDy=0;" parent="1" source="QV8UUKTRK6wTIGegPZfl-8" target="QV8UUKTRK6wTIGegPZfl-22" edge="1">
                    <mxGeometry relative="1" as="geometry">
                        <Array as="points">
                            <mxPoint x="430" y="436"/>
                            <mxPoint x="430" y="739"/>
                        </Array>
                    </mxGeometry>
                </mxCell>
                <mxCell id="QV8UUKTRK6wTIGegPZfl-37" style="edgeStyle=orthogonalEdgeStyle;html=1;exitX=1;exitY=0.5;exitDx=0;exitDy=0;entryX=0;entryY=0.5;entryDx=0;entryDy=0;" parent="1" source="QV8UUKTRK6wTIGegPZfl-8" target="QV8UUKTRK6wTIGegPZfl-40" edge="1">
                    <mxGeometry relative="1" as="geometry">
                        <mxPoint x="460" y="770" as="targetPoint"/>
                        <Array as="points">
                            <mxPoint x="430" y="436"/>
                            <mxPoint x="430" y="842"/>
                        </Array>
                    </mxGeometry>
                </mxCell>
                <mxCell id="2" style="edgeStyle=orthogonalEdgeStyle;html=1;exitX=1;exitY=0.5;exitDx=0;exitDy=0;entryX=0;entryY=0.5;entryDx=0;entryDy=0;" edge="1" parent="1" source="QV8UUKTRK6wTIGegPZfl-8" target="QV8UUKTRK6wTIGegPZfl-24">
                    <mxGeometry relative="1" as="geometry">
                        <Array as="points">
                            <mxPoint x="430" y="436"/>
                            <mxPoint x="430" y="791"/>
                        </Array>
                    </mxGeometry>
                </mxCell>
            </root>
        </mxGraphModel>
    </diagram>
</mxfile>